<?xml version="1.0" encoding="UTF-8"?>
<svg xmlns="http://www.w3.org/2000/svg" xmlns:xlink="http://www.w3.org/1999/xlink" viewBox="0 0 64 64" width="64px" height="64px">
<g id="surface154993279">
<path style=" stroke:none;fill-rule:nonzero;fill:rgb(100%,100%,100%);fill-opacity:1;" d="M 31 46 L 25.816406 46 C 25.402344 47.164062 24.304688 48 23 48 C 21.34375 48 20 46.65625 20 45 C 20 43.34375 21.34375 42 23 42 C 24.304688 42 25.402344 42.835938 25.816406 44 L 31 44 L 31 26 L 24.382812 26 L 22.363281 21.964844 C 22.242188 21.976562 22.125 22 22 22 C 20.34375 22 19 20.65625 19 19 C 19 17.34375 20.34375 16 22 16 C 23.65625 16 25 17.34375 25 19 C 25 19.808594 24.675781 20.539062 24.15625 21.078125 L 25.617188 24 L 31 24 L 31 6.914062 C 26.011719 4.148438 19.671875 8.199219 17.910156 11.929688 C 16.738281 12.628906 13.699219 14.5 13.480469 18.210938 C 10.878906 20.179688 9.429688 22.269531 9.601562 28.769531 C 8.542969 29.910156 7.414062 31.304688 7.097656 33 L 13.183594 33 C 13.597656 31.835938 14.695312 31 16 31 C 17.65625 31 19 32.34375 19 34 C 19 35.65625 17.65625 37 16 37 C 14.695312 37 13.597656 36.164062 13.183594 35 L 7.121094 35 C 7.347656 36.097656 7.933594 37.292969 9.058594 38.609375 C 8.089844 42.339844 9.980469 45.878906 12.628906 48.230469 C 13.5 51.519531 17.511719 54.910156 20.878906 55.160156 C 23.058594 58.695312 28.132812 58.550781 31 56.554688 Z M 57 35.347656 C 57 30.519531 54.371094 27.769531 54.371094 27.769531 C 55.222656 20.648438 53.46875 17.046875 48.363281 14 L 41 14 L 41 17.183594 C 42.164062 17.597656 43 18.695312 43 20 C 43 21.65625 41.65625 23 40 23 C 38.34375 23 37 21.65625 37 20 C 37 18.695312 37.835938 17.597656 39 17.183594 L 39 12 L 46.644531 12 C 43.613281 7.871094 37.34375 4.382812 33 6.859375 L 33 33 L 40.765625 33 L 44.035156 31.363281 C 44.023438 31.242188 44 31.125 44 31 C 44 29.34375 45.34375 28 47 28 C 48.65625 28 50 29.34375 50 31 C 50 32.65625 48.65625 34 47 34 C 46.191406 34 45.460938 33.675781 44.921875 33.15625 L 41.238281 35 L 33 35 L 33 56.632812 C 35.1875 58.21875 38.636719 58.433594 41 57.203125 L 41 47.816406 C 39.835938 47.402344 39 46.304688 39 45 C 39 43.34375 40.34375 42 42 42 C 43.65625 42 45 43.34375 45 45 C 45 46.304688 44.164062 47.402344 43 47.816406 L 43 55.320312 C 43.03125 55.265625 43.070312 55.214844 43.101562 55.160156 C 46.460938 54.910156 50.839844 51.660156 51.710938 48.367188 C 53.179688 45.527344 55.878906 42.328125 54.910156 38.609375 C 54.910156 38.609375 57 38.1875 57 35.347656 Z M 57 35.347656 "/>
</g>
</svg>
