<?xml version="1.0" encoding="UTF-8"?>
<svg xmlns="http://www.w3.org/2000/svg" xmlns:xlink="http://www.w3.org/1999/xlink" viewBox="0 0 30 30" width="30px" height="30px">
<g id="surface155184170">
<path style=" stroke:none;fill-rule:nonzero;fill:rgb(100%,100%,100%);fill-opacity:1;" d="M 7.617188 4 C 6.863281 4 6.164062 4.429688 5.828125 5.105469 L 4 8.761719 L 4 24 C 4 25.105469 4.894531 26 6 26 L 24 26 C 25.105469 26 26 25.105469 26 24 L 26 8.761719 L 24.167969 5.105469 C 23.832031 4.429688 23.136719 4 22.382812 4 Z M 7.617188 6 L 22.378906 6 L 23.878906 9 L 6.117188 9 Z M 15 12 C 15.554688 12 16 12.449219 16 13 L 16 19.585938 L 17.292969 18.292969 C 17.683594 17.902344 18.316406 17.902344 18.707031 18.292969 C 19.097656 18.683594 19.097656 19.316406 18.707031 19.707031 L 15.707031 22.707031 C 15.511719 22.902344 15.257812 23 15 23 C 14.742188 23 14.488281 22.902344 14.292969 22.707031 L 11.292969 19.707031 C 10.902344 19.316406 10.902344 18.683594 11.292969 18.292969 C 11.683594 17.902344 12.316406 17.902344 12.707031 18.292969 L 14 19.585938 L 14 13 C 14 12.449219 14.445312 12 15 12 Z M 15 12 "/>
</g>
</svg>
