<svg xmlns="http://www.w3.org/2000/svg" xmlns:xlink="http://www.w3.org/1999/xlink" viewBox="0,0,256,256" width="30px" height="30px" fill-rule="nonzero"><g fill="#ffffff" fill-rule="nonzero" stroke="none" stroke-width="1" stroke-linecap="butt" stroke-linejoin="miter" stroke-miterlimit="10" stroke-dasharray="" stroke-dashoffset="0" font-family="none" font-weight="none" font-size="none" text-anchor="none" style="mix-blend-mode: normal"><g transform="scale(8.53333,8.53333)"><path d="M15,3c-6.61557,0 -12,5.38443 -12,12c0,6.61557 5.38443,12 12,12c6.61557,0 12,-5.38443 12,-12c0,-6.61557 -5.38443,-12 -12,-12zM14,5.04883v1.95117h-2v-1.54297c0.64067,-0.20032 1.31046,-0.34007 2,-0.4082zM16,5.04883c1.72929,0.17086 3.32516,0.78384 4.67969,1.71875l-0.67969,0.23242v1h-1l-1,1v2l2,-1l3,1l-1,2l-2,-1h-2l-2,2v2l2,2h2l1,2l-2.10742,4.2168c-1.19588,0.50404 -2.51044,0.7832 -3.89258,0.7832c-0.36763,0 -0.72874,-0.02214 -1.08594,-0.06055l-1.94922,-1.9043l0.03516,-4.03516l-3,-3h-3v-2l5,-3v-2h2l1,1l2,-1z"></path></g></g></svg>